# xmcd
#
# Track frame offsets:
#	150
#	12838
#	36773
#	57911
#	80561
#	104020
#
# Disc length: 1719 seconds
#
# Revision: 0
# Processed by: cddbd v1.5.2PL0 Copyright (c) Steve Scherf et al.
# Submitted via: audiograbber 1.83.01
#
DISCID=4606b506
DTITLE=DJ Glenn B - Shake Ya Booty [CDs)
DYEAR=2009
DGENRE=Dance
TTITLE0=Shake Ya Booty (Nils van Zandt Radio Edit)
TTITLE1=Shake Ya Booty (Nils van Zandt Extended Mix)
TTITLE2=Shake Ya Booty (Mark Laurenz Rmx)
TTITLE3=Shake Ya Booty (E-Sonic and Louis Bailar Rmx)
TTITLE4=Shake Ya Booty (Carlos Barbosa Rmx)
TTITLE5=Shake Ya Booty (Funkastarz Rmx)
EXTD=
EXTT0=
EXTT1=
EXTT2=
EXTT3=
EXTT4=
EXTT5=
PLAYORDER=
